<?xml version="1.0" encoding="UTF-8" standalone="no"?>
<!-- Created with Inkscape (http://www.inkscape.org/) -->

<svg
   width="800"
   height="800"
   viewBox="0 0 211.66664 211.66664"
   version="1.1"
   id="svg5"
   sodipodi:docname="curry.svg"
   inkscape:version="1.2.1 (9c6d41e, 2022-07-14)"
   xml:space="preserve"
   xmlns:inkscape="http://www.inkscape.org/namespaces/inkscape"
   xmlns:sodipodi="http://sodipodi.sourceforge.net/DTD/sodipodi-0.dtd"
   xmlns="http://www.w3.org/2000/svg"
   xmlns:svg="http://www.w3.org/2000/svg"><sodipodi:namedview
     id="namedview7"
     pagecolor="#ffffff"
     bordercolor="#000000"
     borderopacity="0.25"
     inkscape:showpageshadow="2"
     inkscape:pageopacity="0.0"
     inkscape:pagecheckerboard="0"
     inkscape:deskcolor="#d1d1d1"
     inkscape:document-units="px"
     showgrid="true"
     inkscape:zoom="0.8415209"
     inkscape:cx="356.49738"
     inkscape:cy="500.87883"
     inkscape:window-width="1440"
     inkscape:window-height="847"
     inkscape:window-x="0"
     inkscape:window-y="1105"
     inkscape:window-maximized="0"
     inkscape:current-layer="layer1"><inkscape:grid
       type="xygrid"
       id="grid12343"
       originx="0"
       originy="0" /></sodipodi:namedview><defs
     id="defs2" /><g
     inkscape:label="Calque 1"
     inkscape:groupmode="layer"
     id="layer1"><circle
       style="display:inline;opacity:1;fill:#ffffff;fill-opacity:1;stroke:none;stroke-width:7.68874;stroke-dasharray:none;stroke-opacity:1"
       id="path4666-8-7"
       cx="105.83332"
       cy="105.83332"
       r="98.415962" /><circle
       style="display:inline;opacity:1;fill:none;stroke:#393939;stroke-width:7.68874;stroke-dasharray:none;stroke-opacity:1"
       id="path4666-8"
       cx="105.83332"
       cy="105.83332"
       r="98.415962" /><path
       id="path18404"
       style="opacity:1;fill:#db8016;fill-opacity:1;stroke-width:0.392632"
       d="m 34.210239,66.724498 c -13.343851,23.246393 -13.343851,54.969582 0,78.215992 13.343857,23.24642 42.360507,37.45811 57.030487,37.56679 14.669974,0.10868 19.027544,-5.17662 19.931174,-8.55633 0.90363,-3.37971 0.49251,-8.3225 -1.66774,-12.70136 -2.59363,-5.25734 -2.87096,-12.48947 -1.58317,-16.18789 1.28779,-3.69842 4.58396,-7.01008 6.4038,-12.60053 1.81985,-5.59046 0.48188,-11.41183 -1.89966,-15.24421 -2.38155,-3.83237 -3.94598,-8.30206 -3.94598,-11.38446 0,-3.08241 2.04844,-8.231109 3.94598,-11.386649 2.38154,-3.83238 3.71951,-9.65298 1.89966,-15.24345 -1.81984,-5.59046 -5.11601,-8.902857 -6.4038,-12.601276 -1.28779,-3.69842 -1.01046,-10.929782 1.58317,-16.187136 2.16025,-4.378852 3.21019,-8.147707 1.66774,-12.70136 -1.54245,-4.553653 -6.58412,-8.554994 -19.931174,-8.554919 -13.34706,7.5e-5 -43.68663,14.320377 -57.030487,37.566788 z"
       sodipodi:nodetypes="sszzsssszcssszzs" /></g></svg>
